<svg xmlns="http://www.w3.org/2000/svg" width="900" height="1100" viewBox="0 0 900 1100" role="img">
  <defs>
    <radialGradient id="bgbg381" cx="50%" cy="38%" r="75%">
      <stop offset="0%" stop-color="#FBF9F4"/>
      <stop offset="100%" stop-color="#EDE6D6"/>
    </radialGradient>
    <radialGradient id="shadowbg381" cx="50%" cy="50%" r="50%">
      <stop offset="0%" stop-color="#000000" stop-opacity="0.16"/>
      <stop offset="100%" stop-color="#000000" stop-opacity="0"/>
    </radialGradient>
  </defs>
  <rect width="900" height="1100" fill="url(#bgbg381)"/>
<defs><linearGradient id="m382" x1="0%" y1="0%" x2="100%" y2="100%">
      <stop offset="0%" stop-color="#F2F1EC"/>
      <stop offset="45%" stop-color="#EAE7DD"/>
      <stop offset="100%" stop-color="#C9C5B8"/>
    </linearGradient></defs><g transform="rotate(-16 378.0 550.0)"><path d="M 180.0 550.0 A 198.0 132.0 0 1 0 576.0 550.0 A 198.0 132.0 0 1 0 180.0 550.0 Z M 235.44 550.0 A 142.56 95.03999999999999 0 1 0 520.56 550.0 A 142.56 95.03999999999999 0 1 0 235.44 550.0 Z" fill="url(#m382)" fill-rule="evenodd"/></g><defs><radialGradient id="gs383" cx="35%" cy="30%" r="75%">
      <stop offset="0%" stop-color="#FFFFFF"/>
      <stop offset="55%" stop-color="#EDEEEA"/>
      <stop offset="100%" stop-color="#C7C6BC"/>
    </radialGradient></defs><circle cx="378.0" cy="411.4" r="25.2" fill="url(#gs383)" stroke="#C7C6BC" stroke-width="1.008"/><line x1="378.0" y1="411.4" x2="398.7" y2="416.9" stroke="#FFFFFF" stroke-opacity="0.35" stroke-width="1"/><line x1="378.0" y1="411.4" x2="383.5" y2="432.1" stroke="#FFFFFF" stroke-opacity="0.35" stroke-width="1"/><line x1="378.0" y1="411.4" x2="362.9" y2="426.5" stroke="#FFFFFF" stroke-opacity="0.35" stroke-width="1"/><line x1="378.0" y1="411.4" x2="357.3" y2="405.9" stroke="#FFFFFF" stroke-opacity="0.35" stroke-width="1"/><line x1="378.0" y1="411.4" x2="372.5" y2="390.7" stroke="#FFFFFF" stroke-opacity="0.35" stroke-width="1"/><line x1="378.0" y1="411.4" x2="393.1" y2="396.3" stroke="#FFFFFF" stroke-opacity="0.35" stroke-width="1"/><path d="M369.936 396.28 L371.48832 401.78367999999995 L376.99199999999996 403.33599999999996 L371.48832 404.88831999999996 L369.936 410.39199999999994 L368.38367999999997 404.88831999999996 L362.88 403.33599999999996 L368.38367999999997 401.78367999999995 Z" fill="#FFFFFF" opacity="0.9"/><defs><radialGradient id="gs384" cx="35%" cy="30%" r="75%">
      <stop offset="0%" stop-color="#FFFFFF"/>
      <stop offset="55%" stop-color="#EDEEEA"/>
      <stop offset="100%" stop-color="#C7C6BC"/>
    </radialGradient></defs><circle cx="607.5" cy="682.0" r="14.4" fill="url(#gs384)" stroke="#C7C6BC" stroke-width="1"/><path d="M602.892 673.36 L603.77904 676.5049600000001 L606.9240000000001 677.392 L603.77904 678.27904 L602.892 681.4240000000001 L602.0049600000001 678.27904 L598.86 677.392 L602.0049600000001 676.5049600000001 Z" fill="#FFFFFF" opacity="0.9"/><defs><radialGradient id="gs385" cx="35%" cy="30%" r="75%">
      <stop offset="0%" stop-color="#FFFFFF"/>
      <stop offset="55%" stop-color="#EDEEEA"/>
      <stop offset="100%" stop-color="#C7C6BC"/>
    </radialGradient></defs><circle cx="688.5" cy="682.0" r="14.4" fill="url(#gs385)" stroke="#C7C6BC" stroke-width="1"/><path d="M683.892 673.36 L684.77904 676.5049600000001 L687.9240000000001 677.392 L684.77904 678.27904 L683.892 681.4240000000001 L683.0049600000001 678.27904 L679.86 677.392 L683.0049600000001 676.5049600000001 Z" fill="#FFFFFF" opacity="0.9"/><text x="72.0" y="968.0" font-family="Georgia, serif" font-size="54.0" letter-spacing="3" fill="#1C1B18" opacity="0.82">LUMIÈRE</text></svg>