<svg xmlns="http://www.w3.org/2000/svg" width="1400" height="1700" viewBox="0 0 1400 1700" role="img"><defs>
      <linearGradient id="leftbg403" x1="0%" y1="0%" x2="100%" y2="100%">
        <stop offset="0%" stop-color="#FBF9F4"/>
        <stop offset="100%" stop-color="#EDE6D6"/>
      </linearGradient>
      <linearGradient id="rightbg403" x1="0%" y1="0%" x2="100%" y2="100%">
        <stop offset="0%" stop-color="#312F29"/>
        <stop offset="55%" stop-color="#1C1B18"/>
        <stop offset="100%" stop-color="#0C0C0B"/>
      </linearGradient>
      <radialGradient id="glowbg403" cx="60%" cy="38%" r="60%">
        <stop offset="0%" stop-color="#C9AF80" stop-opacity="0.28"/>
        <stop offset="100%" stop-color="#C9AF80" stop-opacity="0"/>
      </radialGradient>
      <linearGradient id="seambg403" x1="0%" y1="0%" x2="100%" y2="0%">
        <stop offset="0%" stop-color="#1C1B18" stop-opacity="0"/>
        <stop offset="100%" stop-color="#1C1B18" stop-opacity="0.35"/>
      </linearGradient>
      <linearGradient id="m404" x1="0%" y1="0%" x2="100%" y2="100%">
      <stop offset="0%" stop-color="#E7BEB0"/>
      <stop offset="45%" stop-color="#DDA898"/>
      <stop offset="100%" stop-color="#B87D6E"/>
    </linearGradient>
    </defs><rect width="1400" height="1700" fill="url(#leftbg403)"/><rect x="560.0" width="840.0" height="1700" fill="url(#rightbg403)"/><rect x="560.0" width="840.0" height="1700" fill="url(#glowbg403)"/><rect x="476.0" width="126.0" height="1700" fill="url(#seambg403)"/><g transform="rotate(-14 996.8 884.0)"><ellipse cx="996.8" cy="1141.04" rx="277.20000000000005" ry="40.32" fill="#000000" opacity="0.35"/><path d="M 744.8 884.0 A 252.0 252.0 0 1 0 1248.8 884.0 A 252.0 252.0 0 1 0 744.8 884.0 Z M 835.52 884.0 A 161.28 161.28 0 1 0 1158.08 884.0 A 161.28 161.28 0 1 0 835.52 884.0 Z" fill="url(#m404)" fill-rule="evenodd" stroke="#00000022" stroke-width="1"/></g><defs><radialGradient id="gs405" cx="35%" cy="30%" r="75%">
      <stop offset="0%" stop-color="#FFFFFF"/>
      <stop offset="55%" stop-color="#EDEEEA"/>
      <stop offset="100%" stop-color="#C7C6BC"/>
    </radialGradient></defs><circle cx="996.8" cy="621.9200000000001" r="40.32" fill="url(#gs405)" stroke="#C7C6BC" stroke-width="1.6128"/><line x1="996.8" y1="621.9200000000001" x2="1029.9" y2="630.8" stroke="#FFFFFF" stroke-opacity="0.35" stroke-width="1.2096"/><line x1="996.8" y1="621.9200000000001" x2="1005.7" y2="655.0" stroke="#FFFFFF" stroke-opacity="0.35" stroke-width="1.2096"/><line x1="996.8" y1="621.9200000000001" x2="972.6" y2="646.2" stroke="#FFFFFF" stroke-opacity="0.35" stroke-width="1.2096"/><line x1="996.8" y1="621.9200000000001" x2="963.7" y2="613.0" stroke="#FFFFFF" stroke-opacity="0.35" stroke-width="1.2096"/><line x1="996.8" y1="621.9200000000001" x2="987.9" y2="588.8" stroke="#FFFFFF" stroke-opacity="0.35" stroke-width="1.2096"/><line x1="996.8" y1="621.9200000000001" x2="1021.0" y2="597.7" stroke="#FFFFFF" stroke-opacity="0.35" stroke-width="1.2096"/><path d="M983.8976 597.7280000000002 L986.381312 606.5338880000002 L995.1872 609.0176000000001 L986.381312 611.5013120000001 L983.8976 620.3072000000001 L981.413888 611.5013120000001 L972.6080000000001 609.0176000000001 L981.413888 606.5338880000002 Z" fill="#FFFFFF" opacity="0.9"/><path d="M1179.494470294327 1062.2495322644845 L1180.4498139936654 1065.6366599257758 L1183.8369416549567 1066.5920036251143 L1180.4498139936654 1067.5473473244529 L1179.494470294327 1070.9344749857441 L1178.5391265949884 1067.5473473244529 L1175.151998933697 1066.5920036251143 L1178.5391265949884 1065.6366599257758 Z" fill="#FBF9F4" opacity="0.25329235294842095"/><path d="M1113.5854526824512 1547.6267193930735 L1114.55892230055 1551.0781116754233 L1118.0103145828998 1552.051581293522 L1114.55892230055 1553.0250509116208 L1113.5854526824512 1556.4764431939707 L1112.6119830643524 1553.0250509116208 L1109.1605907820026 1552.051581293522 L1112.6119830643524 1551.0781116754233 Z" fill="#FBF9F4" opacity="0.4948236980064059"/><path d="M629.275197295441 888.1609282464973 L630.0247349757024 890.8183800219692 L632.6821867511743 891.5679177022306 L630.0247349757024 892.317455382492 L629.275197295441 894.9749071579639 L628.5256596151796 892.317455382492 L625.8682078397077 891.5679177022306 L628.5256596151796 890.8183800219692 Z" fill="#FBF9F4" opacity="0.3628784284964911"/><path d="M1064.1070588120501 1377.5853951996392 L1065.1747949886774 1381.3710052804083 L1068.9604050694466 1382.4387414570356 L1065.1747949886774 1383.5064776336628 L1064.1070588120501 1387.292087714432 L1063.0393226354229 1383.5064776336628 L1059.2537125546537 1382.4387414570356 L1063.0393226354229 1381.3710052804083 Z" fill="#FBF9F4" opacity="0.5014704074624152"/><path d="M849.045186131653 289.50894219811374 L850.0554836525434 293.09090613581594 L853.6374475902456 294.1012036567063 L850.0554836525434 295.1115011775966 L849.045186131653 298.6934651152988 L848.0348886107627 295.1115011775966 L844.4529246730605 294.1012036567063 L848.0348886107627 293.09090613581594 Z" fill="#FBF9F4" opacity="0.4446413528652699"/><path d="M1137.2059705604183 153.35238421366128 L1138.0020563290234 156.17487012053383 L1140.824542235896 156.9709558891389 L1138.0020563290234 157.767041657744 L1137.2059705604183 160.58952756461653 L1136.4098847918133 157.767041657744 L1133.5873988849407 156.9709558891389 L1136.4098847918133 156.17487012053383 Z" fill="#FBF9F4" opacity="0.2741075546694218"/><path d="M958.5142417601319 1387.3871652606008 L959.3324419614368 1390.288056883409 L962.2333335842447 1391.1062570847137 L959.3324419614368 1391.9244572860184 L958.5142417601319 1394.8253489088265 L957.696041558827 1391.9244572860184 L954.795149936019 1391.1062570847137 L957.696041558827 1390.288056883409 Z" fill="#FBF9F4" opacity="0.1969774844059694"/><path d="M1280.9213870911633 1396.3551902969723 L1282.2343797528247 1401.010346097408 L1286.8895355532604 1402.3233387590694 L1282.2343797528247 1403.6363314207308 L1280.9213870911633 1408.2914872211666 L1279.608394429502 1403.6363314207308 L1274.9532386290662 1402.3233387590694 L1279.608394429502 1401.010346097408 Z" fill="#FBF9F4" opacity="0.19431448534569817"/><path d="M799.0973409770836 359.8667746612994 L800.5531757165872 365.02837055590334 L805.7147716111912 366.484205295407 L800.5531757165872 367.9400400349106 L799.0973409770836 373.10163592951454 L797.64150623758 367.9400400349106 L792.479910342976 366.484205295407 L797.64150623758 365.02837055590334 Z" fill="#FBF9F4" opacity="0.22616721959714237"/><path d="M698.3864771138825 426.0252586057715 L699.7195562622469 430.7516301317906 L704.445927788266 432.084709280155 L699.7195562622469 433.4177884285194 L698.3864771138825 438.14415995453845 L697.0533979655181 433.4177884285194 L692.327026439499 432.084709280155 L697.0533979655181 430.7516301317906 Z" fill="#FBF9F4" opacity="0.25326835089338584"/><path d="M1345.4321081323124 557.5746030918425 L1346.6256884810066 561.8063879644859 L1350.8574733536502 562.9999683131803 L1346.6256884810066 564.1935486618746 L1345.4321081323124 568.425333534518 L1344.238527783618 564.1935486618746 L1340.0067429109745 562.9999683131803 L1344.238527783618 561.8063879644859 Z" fill="#FBF9F4" opacity="0.25099437781073636"/><path d="M822.7941251571272 1389.6587600686235 L824.3317097785733 1395.1101964537506 L829.7831461637007 1396.647781075197 L824.3317097785733 1398.1853656966432 L822.7941251571272 1403.6368020817704 L821.256540535681 1398.1853656966432 L815.8051041505536 1396.647781075197 L821.256540535681 1395.1101964537506 Z" fill="#FBF9F4" opacity="0.2696691763458675"/><path d="M866.2188673120811 184.47175803321736 L866.9615172104214 187.1047894909696 L869.5945486681737 187.84743938930998 L866.9615172104214 188.59008928765036 L866.2188673120811 191.2231207454026 L865.4762174137408 188.59008928765036 L862.8431859559885 187.84743938930998 L865.4762174137408 187.1047894909696 Z" fill="#FBF9F4" opacity="0.3220657500987246"/><path d="M995.9739993246811 954.8761170584978 L996.869955336284 958.0526883723624 L1000.0465266501485 958.9486443839652 L996.869955336284 959.844600395568 L995.9739993246811 963.0211717094326 L995.0780433130783 959.844600395568 L991.9014719992138 958.9486443839652 L995.0780433130783 958.0526883723624 Z" fill="#FBF9F4" opacity="0.23847769319284318"/><path d="M1022.1115793891734 619.9261570855738 L1023.0032478190694 623.0875269733868 L1026.1646177068826 623.9791954032829 L1023.0032478190694 624.870863833179 L1022.1115793891734 628.032233720992 L1021.2199109592773 624.870863833179 L1018.0585410714642 623.9791954032829 L1021.2199109592773 623.0875269733868 Z" fill="#FBF9F4" opacity="0.5400872344770526"/><path d="M1045.967987606122 117.83018856154888 L1047.4654978133374 123.13954293258512 L1052.7748521843737 124.63705313980046 L1047.4654978133374 126.1345633470158 L1045.967987606122 131.44391771805203 L1044.4704773989067 126.1345633470158 L1039.1611230278704 124.63705313980046 L1044.4704773989067 123.13954293258512 Z" fill="#FBF9F4" opacity="0.5387894125776118"/><path d="M896.7778756548664 1564.5657047304087 L897.4318612654338 1566.8843809860564 L899.7505375210815 1567.5383665966237 L897.4318612654338 1568.192352207191 L896.7778756548664 1570.5110284628388 L896.1238900442991 1568.192352207191 L893.8052137886514 1567.5383665966237 L896.1238900442991 1566.8843809860564 Z" fill="#FBF9F4" opacity="0.5199061813420134"/><path d="M729.6643373250555 1389.0405676346872 L730.8849564103707 1393.3682171189866 L735.2126058946701 1394.588836204302 L730.8849564103707 1395.8094552896173 L729.6643373250555 1400.1371047739167 L728.4437182397403 1395.8094552896173 L724.1160687554409 1394.588836204302 L728.4437182397403 1393.3682171189866 Z" fill="#FBF9F4" opacity="0.5345846235979579"/><path d="M830.5243906744618 1073.544095334504 L832.0055569620416 1078.795503081378 L837.2569647089155 1080.2766693689578 L832.0055569620416 1081.7578356565375 L830.5243906744618 1087.0092434034116 L829.0432243868819 1081.7578356565375 L823.791816640008 1080.2766693689578 L829.0432243868819 1078.795503081378 Z" fill="#FBF9F4" opacity="0.22767404047437864"/><path d="M741.9387047743586 932.2600880772762 L742.621062560994 934.6793565935291 L745.0403310772468 935.3617143801645 L742.621062560994 936.0440721667999 L741.9387047743586 938.4633406830527 L741.2563469877232 936.0440721667999 L738.8370784714704 935.3617143801645 L741.2563469877232 934.6793565935291 Z" fill="#FBF9F4" opacity="0.20017953533419766"/><path d="M613.7354802636123 615.6280168544558 L614.9289408919273 619.8593772639358 L619.1603013014072 621.0528378922507 L614.9289408919273 622.2462985205657 L613.7354802636123 626.4776589300457 L612.5420196352974 622.2462985205657 L608.3106592258174 621.0528378922507 L612.5420196352974 619.8593772639358 Z" fill="#FBF9F4" opacity="0.3523674060147285"/><path d="M1058.7247534010678 138.49203311983408 L1059.3749885866603 140.79741241420712 L1061.6803678810331 141.4476475997995 L1059.3749885866603 142.09788278539187 L1058.7247534010678 144.40326207976491 L1058.0745182154753 142.09788278539187 L1055.7691389211025 141.4476475997995 L1058.0745182154753 140.79741241420712 Z" fill="#FBF9F4" opacity="0.389207677154808"/><text x="84.0" y="1530.0" font-family="'Cormorant Garamond', Georgia, serif" font-size="25.2" letter-spacing="4" fill="#8A8477" opacity="0.7">FINE JEWELLERY &#183; CHICC</text></svg>